<svg width="80" height="80" viewBox="0 0 80 80" fill="none" xmlns="http://www.w3.org/2000/svg">
<path d="M39.9999 33.3333C46.4432 33.3333 51.6666 28.11 51.6666 21.6667C51.6666 15.2233 46.4432 10 39.9999 10C33.5566 10 28.3333 15.2233 28.3333 21.6667C28.3333 28.11 33.5566 33.3333 39.9999 33.3333Z" stroke="white" stroke-width="4" stroke-linecap="round" stroke-linejoin="round"/>
<path d="M20 12.0913C16.9775 14.1996 15 17.7022 15 21.6668C15 25.9107 17.266 29.6253 20.654 31.6668" stroke="white" stroke-width="4" stroke-linecap="round" stroke-linejoin="round"/>
<path d="M60 12.0913C63.0225 14.1996 65 17.7022 65 21.6668C65 25.6313 63.0225 29.1342 60 31.2423" stroke="white" stroke-width="4" stroke-linecap="round" stroke-linejoin="round"/>
<path d="M20 66.6665V69.9998H60V66.6665C60 60.454 60 57.3477 58.985 54.8973C57.6318 51.6303 55.0362 49.0347 51.7692 47.6815C49.3188 46.6665 46.2125 46.6665 40 46.6665C33.7875 46.6665 30.6812 46.6665 28.2308 47.6815C24.9638 49.0347 22.3682 51.6303 21.015 54.8973C20 57.3477 20 60.454 20 66.6665Z" stroke="white" stroke-width="4" stroke-linecap="round" stroke-linejoin="round"/>
<path d="M73.3331 70.0003V68.0003C73.3331 60.5329 73.3331 56.7993 71.88 53.9471C70.6016 51.4383 68.5618 49.3985 66.053 48.1201" stroke="white" stroke-width="4" stroke-linecap="round" stroke-linejoin="round"/>
<path d="M6.66675 70.0003V68.0003C6.66675 60.5329 6.66675 56.7993 8.12 53.9471C9.3983 51.4383 11.438 49.3985 13.9469 48.1201" stroke="white" stroke-width="4" stroke-linecap="round" stroke-linejoin="round"/>
</svg>
