<svg width="642" height="722" viewBox="0 0 642 722" fill="none" xmlns="http://www.w3.org/2000/svg">
<rect width="320" height="320" transform="matrix(-1 0 0 1 321 81)" fill="white"/>
<rect width="320" height="320" transform="matrix(-1 0 0 1 321 81)" stroke="#DEDEDE"/>
<rect width="320" height="320" transform="matrix(-1 0 0 1 641 1)" fill="white"/>
<rect width="320" height="320" transform="matrix(-1 0 0 1 641 1)" stroke="#DEDEDE"/>
<rect width="320" height="320" transform="matrix(-1 0 0 1 321 401)" fill="white"/>
<rect width="320" height="320" transform="matrix(-1 0 0 1 321 401)" stroke="#DEDEDE"/>
<rect width="320" height="320" transform="matrix(-1 0 0 1 641 321)" fill="white"/>
<rect width="320" height="320" transform="matrix(-1 0 0 1 641 321)" stroke="#DEDEDE"/>
</svg>
