<svg width="0" height="0" class="hidden">

	<symbol xmlns="http://www.w3.org/2000/svg" viewBox="0 0 24 24" id="triangle-right"><path d="M24 0H0v24h24V0z" fill="none"/><path d="M10 6l6 6-6 6V6z"/></symbol>

	<symbol xmlns="http://www.w3.org/2000/svg" viewBox="0 0 24 24" id="linkedin"><path fill-rule="evenodd" clip-rule="evenodd" d="M4.5 2.75a1.25 1.25 0 100 2.5 1.25 1.25 0 000-2.5zM1.75 4a2.75 2.75 0 115.5 0 2.75 2.75 0 01-5.5 0z"/><path fill-rule="evenodd" clip-rule="evenodd" d="M1.75 9c0-.41.34-.75.75-.75h4c.41 0 .75.34.75.75v12.5c0 .41-.34.75-.75.75h-4a.75.75 0 01-.75-.75V9zm1.5.75v11h2.5v-11h-2.5z"/><path fill-rule="evenodd" clip-rule="evenodd" d="M11.29 10.3A6.22 6.22 0 0116 8.26c2.11 0 3.68.92 4.71 2.06a5.6 5.6 0 011.54 3.44v7.75c0 .41-.34.75-.75.75H18a.75.75 0 01-.75-.75v-7c0-.33-.13-.73-.37-1.04A1.1 1.1 0 0016 13c-.4 0-.7.16-.9.4a1.7 1.7 0 00-.35 1.1v7c0 .41-.34.75-.75.75h-3.5a.75.75 0 01-.75-.75v-7.75c0-.98.54-2.34 1.54-3.44zm1.11 1.02a4.17 4.17 0 00-1.15 2.43v7h2V14.5c0-.77.23-1.51.7-2.08.5-.58 1.2-.92 2.05-.92.9 0 1.6.46 2.06 1.04.44.56.69 1.29.69 1.96v6.25h2v-7c0-.52-.34-1.54-1.15-2.43A4.72 4.72 0 0016 9.75c-1.64 0-2.82.7-3.6 1.57z"/></symbol>

	<symbol xmlns="http://www.w3.org/2000/svg" viewBox="0 0 24 24" id="facebook"><path fill-rule="evenodd" clip-rule="evenodd" d="M13.5 3.5a3 3 0 00-2.9 3v4.2c0 .6-.5 1-1 1H7v1.8h2.6c.6 0 1 .5 1 1v6H13v-6c0-.5.5-1 1-1h2.6l.2-1.8H14a1 1 0 01-1-1V7.3c0-1.1.9-2 2-2h2V3.5h-3.5zm0-2H18c.6 0 1 .4 1 1v3.8c0 .6-.4 1-1 1h-3v2.4h3a1 1 0 011 1.2l-.6 3.8c0 .5-.5.8-1 .8H15v6c0 .6-.4 1-1 1H9.6a1 1 0 01-1-1v-6H6a1 1 0 01-1-1v-3.8c0-.5.4-1 1-1h2.6V6.5a5 5 0 014.9-5z"/></symbol>

	<symbol xmlns="http://www.w3.org/2000/svg" viewBox="0 0 24 24" id="twitter"><path fill-rule="evenodd" clip-rule="evenodd" d="M19.3 4.4A5 5 0 0017.5 3c-.8-.4-1.7-.6-2.6-.5a4 4 0 00-3.3 2.3c-.5 1-.7 2.3-.6 3.7-1.2.4-2.3.1-3.3-.5a10 10 0 01-2.9-3.2 1 1 0 00-1.8.3c-.5 2-1 4.5 0 7.3l1-.4-1 .4a8.1 8.1 0 003.5 3.9c-1.6.6-2.9.8-3.8.6a1 1 0 00-.7 1.9h.1c.6.3 2.6 1.5 5 2.1 2.7.7 6 1 8.8-.7 5.3-3.3 5.2-8.8 5.2-11.4a471.1 471.1 0 00.2-.4l.6-.9c.3-.7.6-1.6.6-3a1 1 0 00-1.7-.8c-.6.6-1 .8-1.5.7zm-2.6.4c-.5-.3-1-.3-1.6-.3a2 2 0 00-1.7 1.2c-.4.8-.5 2-.4 3.3 0 .4-.2.8-.5 1a5.6 5.6 0 01-5.9-.3 9.8 9.8 0 01-2-2c-.2 1.3-.2 2.6.3 4 .5 1.3 1.8 2.6 4.2 3.7a1 1 0 010 1.8c-1 .6-2 1-3 1.3l1.6.5c2.4.7 5 .8 7.2-.5C19 15.8 19 11.4 19 8.8v-.4l.1-.4.5-.8a5.6 5.6 0 00.5-.8h-1.8a1 1 0 01-.5-.5c-.4-.6-.8-1-1.2-1.1z"/></symbol>

	<symbol xmlns="http://www.w3.org/2000/svg" viewBox="0 0 24 24" id="email"><path fill-rule="evenodd" clip-rule="evenodd" d="M1 4.5c0-.6.4-1 1-1h20c.6 0 1 .4 1 1v15c0 .6-.4 1-1 1H2a1 1 0 01-1-1v-15zm2 1v13h18v-13H3z"/><path fill-rule="evenodd" clip-rule="evenodd" d="M1.2 3.9a1 1 0 011.4-.2l9.4 7 9.4-7a1 1 0 011.2 1.6l-10 7.5a1 1 0 01-1.2 0l-10-7.5a1 1 0 01-.2-1.4z"/><path fill-rule="evenodd" clip-rule="evenodd" d="M1 4.5c0-.6.4-1 1-1h10a1 1 0 110 2H3V12a1 1 0 11-2 0V4.5z"/><path fill-rule="evenodd" clip-rule="evenodd" d="M11 4.5c0-.6.4-1 1-1h10c.6 0 1 .4 1 1V12a1 1 0 11-2 0V5.5h-9a1 1 0 01-1-1z"/></symbol>

	<symbol xmlns="http://www.w3.org/2000/svg" viewBox="0 0 24 24" id="print"><path fill-rule="evenodd" clip-rule="evenodd" d="M4.5 16c0-.6.4-1 1-1h13c.6 0 1 .4 1 1v6c0 .6-.4 1-1 1h-13a1 1 0 01-1-1v-6zm2 1v4h11v-4h-11z"/><path fill-rule="evenodd" clip-rule="evenodd" d="M1 10c0-.6.4-1 1-1h20c.6 0 1 .4 1 1v9c0 .6-.4 1-1 1h-3.5a1 1 0 01-1-1v-2h-11v2c0 .6-.5 1-1 1H2a1 1 0 01-1-1v-9zm2 1v7h1.5v-2c0-.6.4-1 1-1h13c.6 0 1 .4 1 1v2H21v-7H3z"/><path fill-rule="evenodd" clip-rule="evenodd" d="M4 2c0-.6.4-1 1-1h14c.6 0 1 .4 1 1v8c0 .6-.4 1-1 1H5a1 1 0 01-1-1V2zm2 1v6h12V3H6z"/></symbol>

	<symbol xmlns="http://www.w3.org/2000/svg" viewBox="0 0 24 24" id="arrow-left"><path fill-rule="evenodd" clip-rule="evenodd" d="M16.2 5.3c.4.4.4 1 0 1.4L11 12l5.3 5.3a1 1 0 01-1.4 1.4l-6-6a1 1 0 010-1.4l6-6a1 1 0 011.4 0z"/></symbol>

	<symbol xmlns="http://www.w3.org/2000/svg" viewBox="0 0 24 24" id="arrow-up"><path fill-rule="evenodd" clip-rule="evenodd" d="M11.25 21V3h1.5v18h-1.5z"/><path fill-rule="evenodd" clip-rule="evenodd" d="M11.47 2.47c.3-.3.77-.3 1.06 0l6 6-1.06 1.06L12 4.06 6.53 9.53 5.47 8.47l6-6z"/></symbol>

	<symbol xmlns="http://www.w3.org/2000/svg" viewBox="0 0 24 24" id="arrow-down"><path fill-rule="evenodd" clip-rule="evenodd" d="M12 16.06l6.53-6.53-1.06-1.06L12 13.94 6.53 8.47 5.47 9.53 12 16.06z"/></symbol>

	<symbol xmlns="http://www.w3.org/2000/svg" viewBox="0 0 24 24" id="search"><path fill-rule="evenodd" clip-rule="evenodd" d="M1.25 10.5a9.25 9.25 0 1118.5 0 9.25 9.25 0 01-18.5 0zm9.25-7.75a7.75 7.75 0 100 15.5 7.75 7.75 0 000-15.5z"/><path fill-rule="evenodd" clip-rule="evenodd" d="M7.14 6.64a4.74 4.74 0 016.72 0A.75.75 0 0112.8 7.7a3.24 3.24 0 00-4.6 0 .75.75 0 01-1.06-1.06z"/><path fill-rule="evenodd" clip-rule="evenodd" d="M16.08 16.08c.3-.3.77-.3 1.06 0l4.24 4.24a.75.75 0 01-1.06 1.06l-4.24-4.24a.75.75 0 010-1.06z"/></symbol>

	<symbol xmlns="http://www.w3.org/2000/svg" viewBox="0 0 24 24" id="close"><path fill-rule="evenodd" clip-rule="evenodd" d="M5.47 5.47c.3-.3.77-.3 1.06 0l12 12a.75.75 0 11-1.06 1.06l-12-12a.75.75 0 010-1.06z"/><path fill-rule="evenodd" clip-rule="evenodd" d="M18.53 5.47a.75.75 0 00-1.06 0l-12 12a.75.75 0 101.06 1.06l12-12c.3-.3.3-.77 0-1.06z"/></symbol>

	<symbol xmlns="http://www.w3.org/2000/svg" viewBox="0 0 24 24" id="location"><path fill-rule="evenodd" clip-rule="evenodd" d="M3.5 9.5a8.5 8.5 0 1117 0c0 3.6-2.06 6.96-3.97 9.32a29.98 29.98 0 01-3.88 3.94l-.02.01v.01L12 22l-.63.78-.02-.02a8.85 8.85 0 01-.33-.27l-.88-.8c-.72-.69-1.7-1.67-2.67-2.87C5.56 16.46 3.5 13.1 3.5 9.5zM12 22l-.63.78a1 1 0 001.25 0L12 22zm0-1.32a25.96 25.96 0 002.97-3.12c1.84-2.27 3.53-5.16 3.53-8.06a6.5 6.5 0 10-13 0c0 2.9 1.69 5.8 3.53 8.06A27.96 27.96 0 0012 20.68z"/><path fill-rule="evenodd" clip-rule="evenodd" d="M8 9.5a4 4 0 118 0 4 4 0 01-8 0zm4-2a2 2 0 100 4 2 2 0 000-4z"/></symbol>

	<symbol xmlns="http://www.w3.org/2000/svg" viewBox="0 0 24 24" id="world"><path fill-rule="evenodd" clip-rule="evenodd" d="M1.25 12a10.75 10.75 0 1121.5 0 10.75 10.75 0 01-21.5 0zM12 2.75a9.25 9.25 0 100 18.5 9.25 9.25 0 000-18.5z"/><path fill-rule="evenodd" clip-rule="evenodd" d="M1.25 12c0-.41.34-.75.75-.75h20a.75.75 0 010 1.5H2a.75.75 0 01-.75-.75z"/><path fill-rule="evenodd" clip-rule="evenodd" d="M9.9 2.27A2.91 2.91 0 0112 1.25c.82 0 1.54.42 2.1 1.02.57.6 1.04 1.42 1.42 2.38A20.45 20.45 0 0116.75 12c0 2.83-.46 5.43-1.23 7.35a7.56 7.56 0 01-1.42 2.38 2.91 2.91 0 01-2.1 1.02c-.82 0-1.54-.42-2.1-1.02a7.55 7.55 0 01-1.42-2.38A20.45 20.45 0 017.25 12c0-2.83.46-5.43 1.23-7.35.38-.96.85-1.78 1.42-2.38zm-.03 2.94C9.19 6.9 8.75 9.3 8.75 12c0 2.69.44 5.1 1.12 6.8.34.85.73 1.48 1.12 1.9.39.41.73.55 1.01.55s.62-.14 1.01-.55a6.1 6.1 0 001.12-1.9c.68-1.7 1.12-4.11 1.12-6.8 0-2.69-.44-5.1-1.12-6.8a6.1 6.1 0 00-1.12-1.9c-.39-.41-.73-.55-1.01-.55s-.62.14-1.01.55a6.1 6.1 0 00-1.12 1.9z"/><path fill-rule="evenodd" clip-rule="evenodd" d="M4.4 4.54c.3-.3.77-.3 1.06 0a9.22 9.22 0 0013.08 0A.75.75 0 1119.6 5.6a10.72 10.72 0 01-15.2 0 .75.75 0 010-1.06z"/><path fill-rule="evenodd" clip-rule="evenodd" d="M4.4 18.4a10.72 10.72 0 0115.2 0 .75.75 0 01-1.06 1.06 9.22 9.22 0 00-13.08 0A.75.75 0 114.4 18.4z"/></symbol>

	<symbol xmlns="http://www.w3.org/2000/svg" viewBox="0 0 24 24" id="up-right-arrow"><path fill-rule="evenodd" clip-rule="evenodd" d="M17.5 6.5v8h2v-10h-10v2h8z"/><path fill-rule="evenodd" clip-rule="evenodd" d="M17.8 4.8L5.05 17.51l1.42 1.41L19.2 6.21l-1.42-1.42z"/></symbol>
</svg>