<svg width="115" height="40" viewBox="0 0 115 40" fill="none" xmlns="http://www.w3.org/2000/svg">
<path fill-rule="evenodd" clip-rule="evenodd" d="M27.6001 36.0004V2.40039L28.8001 2.96012V36.0004H27.6001ZM31.2001 4.07957L30.0001 3.51985V36.0004H31.2001V4.07957ZM32.4001 36.0004V4.6393L33.6001 5.19903V36.0004H32.4001ZM36.0001 6.31848L34.8001 5.75875V36.0004H36.0001V6.31848Z" fill="url(#paint0_linear)"/>
<path fill-rule="evenodd" clip-rule="evenodd" d="M22.3999 0V36H26.3999V1.87502L22.3999 0Z" fill="url(#paint1_linear)"/>
<path fill-rule="evenodd" clip-rule="evenodd" d="M13.2 3.40039V36.0004H12V3.83613L13.2 3.40039ZM9.6 4.7076V36.0004H10.8V4.27186L9.6 4.7076ZM8.4 5.14334V36.0004H7.2V5.57907L8.4 5.14334ZM6 6.01481L4.8 6.45055V36.0004H6V6.01481ZM1.2 7.75776L0 8.19349V36.0004H1.2V7.75776ZM3.6 6.88628L2.4 7.32202V36.0004H3.6V6.88628Z" fill="url(#paint2_linear)"/>
<path fill-rule="evenodd" clip-rule="evenodd" d="M22.3999 0L14.3999 2.89999V36H22.3999V0Z" fill="url(#paint3_linear)"/>
<path d="M50.4636 9.56347C50.4636 10.0852 50.381 10.5601 50.2159 10.9879C50.0508 11.4157 49.8177 11.782 49.5166 12.0866C49.2155 12.3913 48.8529 12.6279 48.4288 12.7964C48.0079 12.9617 47.5417 13.0444 47.0302 13.0444H44.4321V6.07764H47.0302C47.5417 6.07764 48.0079 6.16191 48.4288 6.33045C48.8529 6.49574 49.2155 6.73235 49.5166 7.04025C49.8177 7.34492 50.0508 7.71117 50.2159 8.139C50.381 8.56682 50.4636 9.04165 50.4636 9.56347ZM49.4972 9.56347C49.4972 9.13564 49.4389 8.75319 49.3223 8.41611C49.2058 8.07903 49.0407 7.79382 48.827 7.56045C48.6133 7.32709 48.3543 7.14883 48.05 7.02567C47.7457 6.9025 47.4057 6.84092 47.0302 6.84092H45.3742V12.2811H47.0302C47.4057 12.2811 47.7457 12.2195 48.05 12.0964C48.3543 11.9732 48.6133 11.7966 48.827 11.5664C49.0407 11.3331 49.2058 11.0479 49.3223 10.7108C49.4389 10.3737 49.4972 9.9913 49.4972 9.56347Z" fill="white"/>
<path d="M53.9284 13.0444H52.9863V6.07764H53.9284V13.0444Z" fill="white"/>
<path d="M62.5267 9.69489V12.3688C62.1771 12.6216 61.8032 12.8112 61.4049 12.9376C61.01 13.0608 60.5761 13.1224 60.1035 13.1224C59.5434 13.1224 59.0383 13.0365 58.5883 12.8647C58.1383 12.6897 57.753 12.4466 57.4325 12.1355C57.1153 11.8211 56.8708 11.4451 56.6992 11.0075C56.5277 10.57 56.4419 10.0887 56.4419 9.56362C56.4419 9.03208 56.5244 8.54753 56.6895 8.10997C56.8579 7.67242 57.0958 7.29807 57.4034 6.98692C57.711 6.67253 58.0849 6.42945 58.5252 6.25767C58.9655 6.08589 59.4576 6 60.0015 6C60.2767 6 60.5324 6.02107 60.7688 6.0632C61.0051 6.1021 61.2236 6.16044 61.4244 6.23822C61.6251 6.31277 61.8112 6.40514 61.9828 6.51534C62.1544 6.6223 62.3147 6.74384 62.4636 6.87997L62.1965 7.3078C62.1544 7.37262 62.0994 7.41475 62.0314 7.4342C61.9666 7.45041 61.8938 7.4342 61.8129 7.38558C61.7352 7.34021 61.6461 7.28511 61.5458 7.22029C61.4454 7.15546 61.3224 7.09388 61.1767 7.03554C61.0342 6.97396 60.8643 6.9221 60.6668 6.87997C60.4725 6.83783 60.2411 6.81676 59.9723 6.81676C59.5806 6.81676 59.2261 6.88159 58.9088 7.01123C58.5916 7.13764 58.3212 7.32076 58.0978 7.5606C57.8744 7.79721 57.7029 8.08567 57.5831 8.42599C57.4633 8.76306 57.4034 9.14227 57.4034 9.56362C57.4034 10.0012 57.4649 10.3934 57.5879 10.7402C57.7142 11.0837 57.8923 11.377 58.1221 11.6201C58.3552 11.86 58.6369 12.0431 58.9671 12.1695C59.2973 12.2959 59.668 12.3591 60.0792 12.3591C60.4029 12.3591 60.6895 12.3234 60.9387 12.2521C61.1913 12.1776 61.4373 12.0755 61.6769 11.9459V10.4144H60.594C60.5324 10.4144 60.4823 10.3966 60.4434 10.3609C60.4078 10.3253 60.39 10.2815 60.39 10.2297V9.69489H62.5267Z" fill="white"/>
<path d="M66.0764 13.0444H65.1343V6.07764H66.0764V13.0444Z" fill="white"/>
<path d="M73.7275 6.87009H71.4742V13.0444H70.5369V6.87009H68.2788V6.07764H73.7275V6.87009Z" fill="white"/>
<path d="M79.6213 10.458L78.5287 7.62366C78.4963 7.53939 78.4623 7.44215 78.4267 7.33195C78.3911 7.21851 78.3571 7.09859 78.3247 6.97219C78.2567 7.23472 78.1871 7.4535 78.1159 7.62852L77.0232 10.458H79.6213ZM81.5833 13.0444H80.8548C80.7706 13.0444 80.7027 13.0233 80.6509 12.9812C80.5991 12.9391 80.5602 12.8856 80.5343 12.8208L79.8836 11.1386H76.761L76.1103 12.8208C76.0908 12.8791 76.0536 12.931 75.9986 12.9763C75.9435 13.0217 75.8755 13.0444 75.7946 13.0444H75.0662L77.8488 6.07764H78.8006L81.5833 13.0444Z" fill="white"/>
<path d="M87.6125 12.2519V13.0444H83.6643V6.07764H84.6016V12.2519H87.6125Z" fill="white"/>
<path d="M50.0849 20.6339V23.3078C49.7352 23.5606 49.3613 23.7502 48.9631 23.8766C48.5681 23.9998 48.1343 24.0614 47.6616 24.0614C47.1015 24.0614 46.5965 23.9755 46.1465 23.8037C45.6964 23.6287 45.3112 23.3856 44.9907 23.0745C44.6734 22.7601 44.429 22.3841 44.2574 21.9466C44.0858 21.509 44 21.0277 44 20.5026C44 19.9711 44.0826 19.4865 44.2477 19.049C44.416 18.6114 44.654 18.2371 44.9615 17.9259C45.2691 17.6115 45.643 17.3685 46.0833 17.1967C46.5236 17.0249 47.0157 16.939 47.5596 16.939C47.8348 16.939 48.0906 16.9601 48.3269 17.0022C48.5633 17.0411 48.7818 17.0994 48.9825 17.1772C49.1832 17.2518 49.3694 17.3442 49.541 17.4543C49.7126 17.5613 49.8728 17.6828 50.0217 17.819L49.7547 18.2468C49.7126 18.3116 49.6575 18.3538 49.5895 18.3732C49.5248 18.3894 49.4519 18.3732 49.371 18.3246C49.2933 18.2792 49.2043 18.2241 49.1039 18.1593C49.0036 18.0945 48.8805 18.0329 48.7348 17.9745C48.5924 17.913 48.4224 17.8611 48.2249 17.819C48.0307 17.7768 47.7992 17.7558 47.5305 17.7558C47.1388 17.7558 46.7842 17.8206 46.467 17.9502C46.1497 18.0766 45.8794 18.2598 45.656 18.4996C45.4326 18.7362 45.261 19.0247 45.1412 19.365C45.0214 19.7021 44.9615 20.0813 44.9615 20.5026C44.9615 20.9402 45.023 21.3324 45.1461 21.6792C45.2723 22.0227 45.4504 22.316 45.6803 22.5591C45.9134 22.799 46.195 22.9821 46.5252 23.1085C46.8555 23.2349 47.2262 23.2981 47.6373 23.2981C47.9611 23.2981 48.2476 23.2625 48.4969 23.1911C48.7494 23.1166 48.9955 23.0145 49.235 22.8849V21.3534H48.1521C48.0906 21.3534 48.0404 21.3356 48.0015 21.2999C47.9659 21.2643 47.9481 21.2205 47.9481 21.1687V20.6339H50.0849Z" fill="white"/>
<path d="M56.6405 23.1909V23.9834H52.6924V17.0166H53.6296V23.1909H56.6405Z" fill="white"/>
<path d="M65.2767 20.5026C65.2767 21.0245 65.1941 21.5041 65.029 21.9417C64.8639 22.376 64.6308 22.7504 64.3297 23.0647C64.0286 23.3791 63.666 23.6238 63.2419 23.7989C62.821 23.9706 62.3548 24.0565 61.8433 24.0565C61.3318 24.0565 60.8656 23.9706 60.4447 23.7989C60.0238 23.6238 59.6629 23.3791 59.3618 23.0647C59.0607 22.7504 58.8276 22.376 58.6625 21.9417C58.4974 21.5041 58.4148 21.0245 58.4148 20.5026C58.4148 19.9808 58.4974 19.5027 58.6625 19.0684C58.8276 18.6309 59.0607 18.2549 59.3618 17.9405C59.6629 17.6229 60.0238 17.3766 60.4447 17.2015C60.8656 17.0265 61.3318 16.939 61.8433 16.939C62.3548 16.939 62.821 17.0265 63.2419 17.2015C63.666 17.3766 64.0286 17.6229 64.3297 17.9405C64.6308 18.2549 64.8639 18.6309 65.029 19.0684C65.1941 19.5027 65.2767 19.9808 65.2767 20.5026ZM64.3103 20.5026C64.3103 20.0748 64.252 19.6907 64.1355 19.3504C64.0189 19.0101 63.8538 18.7233 63.6401 18.4899C63.4265 18.2533 63.1675 18.0718 62.8631 17.9454C62.5588 17.819 62.2189 17.7558 61.8433 17.7558C61.471 17.7558 61.1327 17.819 60.8284 17.9454C60.524 18.0718 60.2634 18.2533 60.0465 18.4899C59.8328 18.7233 59.6677 19.0101 59.5512 19.3504C59.4346 19.6907 59.3763 20.0748 59.3763 20.5026C59.3763 20.9305 59.4346 21.3145 59.5512 21.6549C59.6677 21.9919 59.8328 22.2788 60.0465 22.5154C60.2634 22.7487 60.524 22.9286 60.8284 23.055C61.1327 23.1782 61.471 23.2398 61.8433 23.2398C62.2189 23.2398 62.5588 23.1782 62.8631 23.055C63.1675 22.9286 63.4265 22.7487 63.6401 22.5154C63.8538 22.2788 64.0189 21.9919 64.1355 21.6549C64.252 21.3145 64.3103 20.9305 64.3103 20.5026Z" fill="white"/>
<path d="M70.2327 23.2347C70.5014 23.2347 70.7329 23.2039 70.9271 23.1423C71.1214 23.0807 71.28 22.9949 71.403 22.8847C71.5293 22.7712 71.6216 22.6383 71.6798 22.486C71.7381 22.3304 71.7673 22.1603 71.7673 21.9755C71.7673 21.6158 71.6394 21.3322 71.3836 21.1247C71.1279 20.9141 70.7442 20.8087 70.2327 20.8087H68.7273V23.2347H70.2327ZM68.7273 17.7604V20.1378H69.9705C70.2359 20.1378 70.4658 20.1086 70.66 20.0503C70.8575 19.992 71.0194 19.9109 71.1457 19.8072C71.2752 19.7035 71.3707 19.5787 71.4322 19.4329C71.4937 19.2838 71.5245 19.1217 71.5245 18.9467C71.5245 18.5351 71.4014 18.2353 71.1554 18.0473C70.9093 17.856 70.5273 17.7604 70.0093 17.7604H68.7273ZM70.0093 17.0166C70.4367 17.0166 70.8041 17.0587 71.1117 17.143C71.4225 17.2273 71.6766 17.3472 71.8741 17.5028C72.0748 17.6583 72.2221 17.8496 72.316 18.0764C72.4099 18.3001 72.4568 18.5529 72.4568 18.8349C72.4568 19.0066 72.4293 19.1719 72.3743 19.3308C72.3225 19.4863 72.2432 19.6322 72.1363 19.7683C72.0295 19.9044 71.8935 20.0276 71.7284 20.1378C71.5665 20.2448 71.3755 20.3323 71.1554 20.4003C71.6669 20.4976 72.0505 20.6807 72.3063 20.9497C72.5653 21.2155 72.6948 21.5655 72.6948 21.9998C72.6948 22.2948 72.6398 22.5638 72.5297 22.8069C72.4229 23.05 72.2642 23.259 72.0538 23.434C71.8466 23.6091 71.5908 23.7452 71.2865 23.8424C70.9822 23.9364 70.6358 23.9834 70.2473 23.9834H67.79V17.0166H70.0093Z" fill="white"/>
<path d="M78.9302 21.397L77.8375 18.5626C77.8051 18.4783 77.7712 18.3811 77.7355 18.2709C77.6999 18.1575 77.6659 18.0376 77.6336 17.9111C77.5656 18.1737 77.496 18.3925 77.4247 18.5675L76.3321 21.397H78.9302ZM80.8921 23.9834H80.1637C80.0795 23.9834 80.0115 23.9623 79.9597 23.9202C79.9079 23.8781 79.869 23.8246 79.8432 23.7598L79.1924 22.0776H76.0698L75.4191 23.7598C75.3997 23.8181 75.3625 23.87 75.3074 23.9153C75.2524 23.9607 75.1844 23.9834 75.1035 23.9834H74.375L77.1576 17.0166H78.1095L80.8921 23.9834Z" fill="white"/>
<path d="M86.921 23.1909V23.9834H82.9729V17.0166H83.9101V23.1909H86.921Z" fill="white"/>
<path d="M45.3742 34.9224H44.4321V27.9556H45.3742V34.9224Z" fill="white"/>
<path d="M53.9579 27.9556V34.9224H53.4868C53.4123 34.9224 53.3492 34.9094 53.2974 34.8835C53.2489 34.8576 53.2003 34.8138 53.1517 34.7523L49.1259 29.5016C49.1324 29.5827 49.1372 29.6621 49.1405 29.7398C49.1437 29.8176 49.1453 29.8906 49.1453 29.9586V34.9224H48.3198V27.9556H48.8054C48.8475 27.9556 48.8831 27.9588 48.9122 27.9653C48.9414 27.9686 48.9673 27.9767 48.9899 27.9896C49.0126 27.9994 49.0352 28.0156 49.0579 28.0383C49.0806 28.0577 49.1049 28.0836 49.1308 28.116L53.1566 33.3618C53.1501 33.2775 53.1436 33.1965 53.1372 33.1187C53.1339 33.0377 53.1323 32.9615 53.1323 32.8902V27.9556H53.9579Z" fill="white"/>
<path d="M62.56 27.9556L59.724 34.9224H58.879L56.043 27.9556H56.7957C56.8799 27.9556 56.9478 27.9767 56.9996 28.0188C57.0514 28.0609 57.0903 28.1144 57.1162 28.1792L59.0781 33.0944C59.1202 33.2046 59.1607 33.3245 59.1995 33.4542C59.2416 33.5838 59.2788 33.72 59.3112 33.8626C59.3436 33.72 59.3776 33.5838 59.4132 33.4542C59.4488 33.3245 59.4877 33.2046 59.5297 33.0944L61.4868 28.1792C61.5062 28.1241 61.5435 28.0739 61.5985 28.0285C61.6568 27.9799 61.7264 27.9556 61.8073 27.9556H62.56Z" fill="white"/>
<path d="M68.934 34.1543L68.9292 34.9224H64.6411V27.9556H68.9292V28.7238H65.5832V31.0379H68.293V31.7769H65.5832V34.1543H68.934Z" fill="white"/>
<path d="M74.9718 29.0442C74.9427 29.0928 74.9103 29.1301 74.8747 29.156C74.8423 29.1787 74.8018 29.1901 74.7533 29.1901C74.6982 29.1901 74.6335 29.1625 74.559 29.1074C74.4846 29.0523 74.3907 28.9924 74.2774 28.9275C74.1673 28.8595 74.0329 28.7979 73.8743 28.7428C73.7189 28.6877 73.5295 28.6602 73.3061 28.6602C73.0957 28.6602 72.9095 28.6893 72.7476 28.7477C72.589 28.8028 72.4546 28.8789 72.3446 28.9762C72.2377 29.0734 72.1568 29.1885 72.1018 29.3213C72.0467 29.451 72.0192 29.592 72.0192 29.7443C72.0192 29.9388 72.0661 30.1008 72.16 30.2305C72.2572 30.3569 72.3834 30.4655 72.5388 30.5562C72.6975 30.647 72.8755 30.7264 73.073 30.7944C73.2737 30.8593 73.4777 30.9273 73.6849 30.9986C73.8953 31.0699 74.0993 31.151 74.2968 31.2417C74.4975 31.3292 74.6756 31.441 74.831 31.5772C74.9896 31.7133 75.1159 31.8802 75.2098 32.0779C75.3069 32.2756 75.3554 32.5187 75.3554 32.8072C75.3554 33.1118 75.3036 33.3987 75.2 33.6677C75.0964 33.9335 74.9443 34.1652 74.7436 34.3629C74.5461 34.5606 74.3016 34.7162 74.0103 34.8296C73.7221 34.9431 73.3935 34.9998 73.0244 34.9998C72.5712 34.9998 72.16 34.9188 71.791 34.7567C71.4219 34.5914 71.1062 34.3694 70.844 34.0907L71.1159 33.6434C71.1418 33.6077 71.1726 33.5786 71.2082 33.5559C71.2471 33.5299 71.2891 33.517 71.3345 33.517C71.3766 33.517 71.4235 33.5348 71.4753 33.5705C71.5303 33.6029 71.5919 33.645 71.6598 33.6969C71.7278 33.7487 71.8055 33.8054 71.8929 33.867C71.9804 33.9286 72.0791 33.9853 72.1892 34.0372C72.3025 34.089 72.4304 34.1328 72.5728 34.1684C72.7153 34.2009 72.8755 34.2171 73.0536 34.2171C73.277 34.2171 73.4761 34.1863 73.6509 34.1247C73.8257 34.0631 73.973 33.9772 74.0928 33.867C74.2158 33.7536 74.3097 33.6191 74.3745 33.4635C74.4392 33.3079 74.4716 33.1345 74.4716 32.9433C74.4716 32.7326 74.4231 32.5609 74.3259 32.428C74.232 32.2918 74.1074 32.1784 73.952 32.0876C73.7966 31.9969 73.6185 31.9207 73.4178 31.8591C73.2171 31.7943 73.0131 31.7295 72.8059 31.6647C72.5987 31.5966 72.3948 31.5188 72.194 31.4313C71.9933 31.3438 71.8152 31.2304 71.6598 31.091C71.5044 30.9516 71.3782 30.7782 71.2811 30.5708C71.1872 30.3601 71.1402 30.1008 71.1402 29.7929C71.1402 29.5466 71.1872 29.3084 71.2811 29.0783C71.3782 28.8481 71.5174 28.6439 71.6987 28.4657C71.8832 28.2874 72.1082 28.1448 72.3737 28.0379C72.6424 27.9309 72.95 27.8774 73.2964 27.8774C73.6849 27.8774 74.0378 27.939 74.3551 28.0622C74.6756 28.1853 74.9572 28.3636 75.2 28.5969L74.9718 29.0442Z" fill="white"/>
<path d="M82.5569 28.7481H80.3036V34.9224H79.3663V28.7481H77.1082V27.9556H82.5569V28.7481Z" fill="white"/>
<path d="M91.9956 27.9556V34.9224H91.17V29.803C91.17 29.735 91.1716 29.6621 91.1748 29.5843C91.1813 29.5065 91.1878 29.4271 91.1943 29.346L88.805 33.7021C88.7305 33.848 88.6172 33.9209 88.4651 33.9209H88.3291C88.1769 33.9209 88.0636 33.848 87.9892 33.7021L85.5513 29.3266C85.5707 29.4984 85.5805 29.6572 85.5805 29.803V34.9224H84.7549V27.9556H85.4493C85.5335 27.9556 85.5983 27.9637 85.6436 27.9799C85.6889 27.9961 85.7326 28.0415 85.7747 28.116L88.1785 32.4041C88.2174 32.4818 88.2546 32.5629 88.2902 32.6471C88.3291 32.7314 88.3647 32.8173 88.3971 32.9048C88.4295 32.8173 88.4634 32.7314 88.4991 32.6471C88.5347 32.5596 88.5735 32.477 88.6156 32.3992L90.9757 28.116C91.0146 28.0415 91.0567 27.9961 91.102 27.9799C91.1506 27.9637 91.2169 27.9556 91.3011 27.9556H91.9956Z" fill="white"/>
<path d="M99.2336 34.1543L99.2288 34.9224H94.9407V27.9556H99.2288V28.7238H95.8828V31.0379H98.5926V31.7769H95.8828V34.1543H99.2336Z" fill="white"/>
<path d="M107.35 27.9556V34.9224H106.879C106.804 34.9224 106.741 34.9094 106.689 34.8835C106.641 34.8576 106.592 34.8138 106.544 34.7523L102.518 29.5016C102.524 29.5827 102.529 29.6621 102.532 29.7398C102.536 29.8176 102.537 29.8906 102.537 29.9586V34.9224H101.712V27.9556H102.197C102.239 27.9556 102.275 27.9588 102.304 27.9653C102.333 27.9686 102.359 27.9767 102.382 27.9896C102.404 27.9994 102.427 28.0156 102.45 28.0383C102.472 28.0577 102.497 28.0836 102.523 28.116L106.548 33.3618C106.542 33.2775 106.536 33.1965 106.529 33.1187C106.526 33.0377 106.524 32.9615 106.524 32.8902V27.9556H107.35Z" fill="white"/>
<path d="M115 28.7481H112.747V34.9224H111.809V28.7481H109.551V27.9556H115V28.7481Z" fill="white"/>
<defs>
<linearGradient id="paint0_linear" x1="31.8001" y1="-7.41624" x2="31.8001" y2="39.9473" gradientUnits="userSpaceOnUse">
<stop stop-color="#E5E5E5"/>
<stop offset="1" stop-color="#333333"/>
</linearGradient>
<linearGradient id="paint1_linear" x1="22.3999" y1="18" x2="22.3999" y2="36" gradientUnits="userSpaceOnUse">
<stop stop-color="#102693"/>
<stop offset="1" stop-color="#001951"/>
</linearGradient>
<linearGradient id="paint2_linear" x1="6.6" y1="-6.12407" x2="6.6" y2="39.8299" gradientUnits="userSpaceOnUse">
<stop stop-color="#E5E5E5"/>
<stop offset="1" stop-color="#333333"/>
</linearGradient>
<linearGradient id="paint3_linear" x1="14.4054" y1="18" x2="14.4054" y2="34.985" gradientUnits="userSpaceOnUse">
<stop stop-color="#006FFF"/>
<stop offset="1" stop-color="#003FB7"/>
</linearGradient>
</defs>
</svg>
