<svg width="120" height="38" viewBox="0 0 120 38" fill="none" xmlns="http://www.w3.org/2000/svg">
<path fill-rule="evenodd" clip-rule="evenodd" d="M28.7999 37.64V2.5791L30.0521 3.16316V37.64H28.7999ZM32.5564 4.33129L31.3043 3.74723V37.64H32.5564V4.33129ZM33.8086 37.64V4.91535L35.0608 5.49942V37.64H33.8086ZM37.5651 6.66754L36.313 6.08348V37.64H37.5651V6.66754Z" fill="#5A5A5A"/>
<path fill-rule="evenodd" clip-rule="evenodd" d="M23.3739 0.0761719V37.6414H27.5478V2.03271L23.3739 0.0761719Z" fill="#202020"/>
<path fill-rule="evenodd" clip-rule="evenodd" d="M13.7739 3.62402V37.6414H12.5217V4.07871L13.7739 3.62402ZM10.0174 4.98807V37.6414H11.2696V4.53339L10.0174 4.98807ZM8.76522 5.44275V37.6414H7.51304V5.89743L8.76522 5.44275ZM6.26087 6.35211L5.0087 6.80679V37.6414H6.26087V6.35211ZM1.25217 8.17084L0 8.62552V37.6414H1.25217V8.17084ZM3.75652 7.26148L2.50435 7.71616V37.6414H3.75652V7.26148Z" fill="#5A5A5A"/>
<path fill-rule="evenodd" clip-rule="evenodd" d="M23.3739 0.0761719L15.0261 3.10225V37.6414H23.3739V0.0761719Z" fill="#5A5A5A"/>
<path d="M52.6578 10.0555C52.6578 10.6 52.5716 11.0955 52.3993 11.5419C52.2271 11.9883 51.9838 12.3705 51.6696 12.6884C51.3555 13.0063 50.9771 13.2532 50.5345 13.4291C50.0954 13.6016 49.6089 13.6878 49.0751 13.6878H46.3641V6.41808H49.0751C49.6089 6.41808 50.0954 6.50602 50.5345 6.68188C50.9771 6.85437 51.3555 7.10126 51.6696 7.42255C51.9838 7.74046 52.2271 8.12264 52.3993 8.56907C52.5716 9.0155 52.6578 9.51097 52.6578 10.0555ZM51.6494 10.0555C51.6494 9.60905 51.5886 9.20996 51.4669 8.85823C51.3453 8.5065 51.173 8.20888 50.9501 7.96537C50.7271 7.72186 50.4568 7.53585 50.1393 7.40733C49.8217 7.27881 49.467 7.21456 49.0751 7.21456H47.3472V12.8913H49.0751C49.467 12.8913 49.8217 12.8271 50.1393 12.6985C50.4568 12.57 50.7271 12.3857 50.9501 12.1456C51.173 11.9021 51.3453 11.6045 51.4669 11.2527C51.5886 10.901 51.6494 10.5019 51.6494 10.0555Z" fill="#202020"/>
<path d="M56.2733 13.6878H55.2902V6.41808H56.2733V13.6878Z" fill="#202020"/>
<path d="M65.2453 10.1924V12.9826C64.8805 13.2464 64.4903 13.4443 64.0748 13.5762C63.6626 13.7047 63.2099 13.769 62.7167 13.769C62.1323 13.769 61.6053 13.6793 61.1357 13.5001C60.6661 13.3175 60.2641 13.0638 59.9296 12.7391C59.5986 12.4111 59.3435 12.0188 59.1645 11.5622C58.9854 11.1056 58.8959 10.6034 58.8959 10.0555C58.8959 9.50082 58.982 8.9952 59.1543 8.53863C59.33 8.08205 59.5783 7.69142 59.8992 7.36675C60.2202 7.03869 60.6104 6.78504 61.0698 6.60579C61.5292 6.42654 62.0427 6.33691 62.6103 6.33691C62.8974 6.33691 63.1643 6.3589 63.4109 6.40286C63.6575 6.44345 63.8856 6.50433 64.095 6.58549C64.3045 6.66328 64.4987 6.75967 64.6778 6.87466C64.8568 6.98627 65.0241 7.11309 65.1795 7.25514L64.9007 7.70157C64.8568 7.76921 64.7994 7.81318 64.7285 7.83347C64.6609 7.85038 64.5849 7.83347 64.5004 7.78274C64.4193 7.73539 64.3264 7.6779 64.2217 7.61026C64.117 7.54261 63.9886 7.47836 63.8366 7.41748C63.688 7.35322 63.5106 7.29911 63.3045 7.25514C63.1018 7.21117 62.8603 7.18919 62.5799 7.18919C62.1711 7.18919 61.8012 7.25683 61.4701 7.39211C61.1391 7.52401 60.857 7.7151 60.6239 7.96537C60.3908 8.21226 60.2117 8.51326 60.0867 8.86838C59.9617 9.22011 59.8992 9.61581 59.8992 10.0555C59.8992 10.5121 59.9634 10.9213 60.0918 11.2832C60.2235 11.6417 60.4094 11.9477 60.6492 12.2014C60.8924 12.4517 61.1864 12.6427 61.5309 12.7746C61.8755 12.9065 62.2623 12.9725 62.6914 12.9725C63.0292 12.9725 63.3282 12.9353 63.5883 12.8609C63.8518 12.7831 64.1085 12.6766 64.3585 12.5413V10.9433H63.2285C63.1643 10.9433 63.112 10.9247 63.0714 10.8875C63.0343 10.8503 63.0157 10.8046 63.0157 10.7505V10.1924H65.2453Z" fill="#202020"/>
<path d="M68.9493 13.6878H67.9662V6.41808H68.9493V13.6878Z" fill="#202020"/>
<path d="M76.9332 7.24499H74.5819V13.6878H73.6039V7.24499H71.2476V6.41808H76.9332V7.24499Z" fill="#202020"/>
<path d="M83.0832 10.9889L81.943 8.03132C81.9092 7.94339 81.8738 7.84193 81.8366 7.72694C81.7994 7.60856 81.764 7.48343 81.7302 7.35153C81.6592 7.62547 81.5866 7.85376 81.5123 8.03639L80.3721 10.9889H83.0832ZM85.1304 13.6878H84.3703C84.2825 13.6878 84.2115 13.6658 84.1575 13.6218C84.1034 13.5779 84.0629 13.5221 84.0358 13.4544L83.3568 11.6992H80.0985L79.4194 13.4544C79.3992 13.5153 79.3603 13.5694 79.3029 13.6168C79.2455 13.6641 79.1745 13.6878 79.0901 13.6878H78.33L81.2336 6.41808H82.2268L85.1304 13.6878Z" fill="#202020"/>
<path d="M91.4216 12.8609V13.6878H87.3018V6.41808H88.2799V12.8609H91.4216Z" fill="#202020"/>
<path d="M52.2625 21.6069V24.397C51.8977 24.6608 51.5075 24.8587 51.092 24.9906C50.6798 25.1191 50.2271 25.1834 49.7339 25.1834C49.1495 25.1834 48.6224 25.0938 48.1529 24.9145C47.6833 24.7319 47.2813 24.4782 46.9468 24.1535C46.6158 23.8255 46.3607 23.4332 46.1817 22.9766C46.0026 22.52 45.9131 22.0178 45.9131 21.4699C45.9131 20.9152 45.9992 20.4096 46.1715 19.953C46.3472 19.4965 46.5955 19.1058 46.9164 18.7812C47.2374 18.4531 47.6276 18.1994 48.087 18.0202C48.5464 17.8409 49.0599 17.7513 49.6275 17.7513C49.9146 17.7513 50.1815 17.7733 50.4281 17.8173C50.6747 17.8579 50.9028 17.9187 51.1122 17.9999C51.3217 18.0777 51.5159 18.1741 51.695 18.2891C51.874 18.4007 52.0412 18.5275 52.1966 18.6696L51.9179 19.116C51.874 19.1836 51.8166 19.2276 51.7456 19.2479C51.6781 19.2648 51.6021 19.2479 51.5176 19.1971C51.4365 19.1498 51.3436 19.0923 51.2389 19.0247C51.1342 18.957 51.0058 18.8928 50.8538 18.8319C50.7051 18.7676 50.5278 18.7135 50.3217 18.6696C50.119 18.6256 49.8775 18.6036 49.5971 18.6036C49.1883 18.6036 48.8184 18.6712 48.4873 18.8065C48.1562 18.9384 47.8742 19.1295 47.6411 19.3798C47.408 19.6267 47.2289 19.9277 47.1039 20.2828C46.9789 20.6345 46.9164 21.0302 46.9164 21.4699C46.9164 21.9265 46.9806 22.3357 47.109 22.6976C47.2407 23.0561 47.4265 23.3621 47.6664 23.6158C47.9096 23.8661 48.2035 24.0572 48.5481 24.1891C48.8927 24.321 49.2795 24.3869 49.7086 24.3869C50.0464 24.3869 50.3454 24.3497 50.6055 24.2753C50.869 24.1975 51.1257 24.091 51.3757 23.9557V22.3577H50.2457C50.1815 22.3577 50.1292 22.3391 50.0886 22.3019C50.0515 22.2647 50.0329 22.219 50.0329 22.1649V21.6069H52.2625Z" fill="#202020"/>
<path d="M59.1032 24.2753V25.1022H54.9834V17.8325H55.9614V24.2753H59.1032Z" fill="#202020"/>
<path d="M68.1147 21.4699C68.1147 22.0144 68.0286 22.5149 67.8563 22.9715C67.684 23.4247 67.4408 23.8153 67.1266 24.1434C66.8124 24.4715 66.4341 24.7268 65.9915 24.9094C65.5523 25.0887 65.0659 25.1783 64.5321 25.1783C63.9983 25.1783 63.5119 25.0887 63.0727 24.9094C62.6335 24.7268 62.2568 24.4715 61.9427 24.1434C61.6285 23.8153 61.3852 23.4247 61.213 22.9715C61.0407 22.5149 60.9545 22.0144 60.9545 21.4699C60.9545 20.9254 61.0407 20.4265 61.213 19.9733C61.3852 19.5168 61.6285 19.1244 61.9427 18.7964C62.2568 18.4649 62.6335 18.2079 63.0727 18.0253C63.5119 17.8426 63.9983 17.7513 64.5321 17.7513C65.0659 17.7513 65.5523 17.8426 65.9915 18.0253C66.4341 18.2079 66.8124 18.4649 67.1266 18.7964C67.4408 19.1244 67.684 19.5168 67.8563 19.9733C68.0286 20.4265 68.1147 20.9254 68.1147 21.4699ZM67.1063 21.4699C67.1063 21.0235 67.0455 20.6227 66.9239 20.2676C66.8023 19.9125 66.63 19.6131 66.407 19.3696C66.1841 19.1227 65.9138 18.9334 65.5962 18.8015C65.2787 18.6696 64.924 18.6036 64.5321 18.6036C64.1436 18.6036 63.7906 18.6696 63.473 18.8015C63.1555 18.9334 62.8835 19.1227 62.6572 19.3696C62.4342 19.6131 62.2619 19.9125 62.1403 20.2676C62.0187 20.6227 61.9579 21.0235 61.9579 21.4699C61.9579 21.9163 62.0187 22.3171 62.1403 22.6722C62.2619 23.0239 62.4342 23.3232 62.6572 23.5701C62.8835 23.8136 63.1555 24.0013 63.473 24.1332C63.7906 24.2618 64.1436 24.326 64.5321 24.326C64.924 24.326 65.2787 24.2618 65.5962 24.1332C65.9138 24.0013 66.1841 23.8136 66.407 23.5701C66.63 23.3232 66.8023 23.0239 66.9239 22.6722C67.0455 22.3171 67.1063 21.9163 67.1063 21.4699Z" fill="#202020"/>
<path d="M73.2863 24.321C73.5667 24.321 73.8083 24.2888 74.011 24.2246C74.2137 24.1603 74.3792 24.0707 74.5076 23.9557C74.6393 23.8373 74.7356 23.6987 74.7964 23.5397C74.8572 23.3774 74.8876 23.1998 74.8876 23.007C74.8876 22.6316 74.7542 22.3357 74.4873 22.1192C74.2204 21.8994 73.8201 21.7895 73.2863 21.7895H71.7154V24.321H73.2863ZM71.7154 18.6087V21.0894H73.0127C73.2897 21.0894 73.5296 21.059 73.7323 20.9981C73.9383 20.9372 74.1072 20.8527 74.239 20.7444C74.3741 20.6362 74.4738 20.506 74.538 20.3538C74.6022 20.1982 74.6343 20.0291 74.6343 19.8465C74.6343 19.417 74.5059 19.1041 74.2491 18.908C73.9924 18.7084 73.5937 18.6087 73.0532 18.6087H71.7154ZM73.0532 17.8325C73.4992 17.8325 73.8826 17.8765 74.2035 17.9644C74.5278 18.0523 74.793 18.1775 74.9991 18.3398C75.2086 18.5021 75.3623 18.7017 75.4602 18.9384C75.5582 19.1718 75.6072 19.4356 75.6072 19.7298C75.6072 19.9091 75.5785 20.0816 75.521 20.2473C75.467 20.4096 75.3842 20.5618 75.2727 20.7039C75.1613 20.8459 75.0194 20.9744 74.8471 21.0894C74.6782 21.201 74.4789 21.2923 74.2491 21.3634C74.7829 21.4648 75.1832 21.6559 75.4501 21.9366C75.7204 22.2139 75.8555 22.5792 75.8555 23.0324C75.8555 23.3402 75.7981 23.6209 75.6832 23.8745C75.5717 24.1282 75.4062 24.3463 75.1866 24.5289C74.9704 24.7116 74.7035 24.8536 74.3859 24.9551C74.0684 25.0532 73.7069 25.1022 73.3015 25.1022H70.7374V17.8325H73.0532Z" fill="#202020"/>
<path d="M82.3619 22.4033L81.2217 19.4457C81.1879 19.3578 81.1524 19.2563 81.1153 19.1413C81.0781 19.023 81.0427 18.8978 81.0089 18.7659C80.9379 19.0399 80.8653 19.2682 80.791 19.4508L79.6508 22.4033H82.3619ZM84.4091 25.1022H83.649C83.5611 25.1022 83.4902 25.0802 83.4361 25.0363C83.3821 24.9923 83.3416 24.9365 83.3145 24.8688L82.6355 23.1136H79.3772L78.6981 24.8688C78.6779 24.9297 78.639 24.9838 78.5816 25.0312C78.5242 25.0785 78.4532 25.1022 78.3688 25.1022H77.6087L80.5123 17.8325H81.5055L84.4091 25.1022Z" fill="#202020"/>
<path d="M90.7003 24.2753V25.1022H86.5805V17.8325H87.5585V24.2753H90.7003Z" fill="#202020"/>
<path d="M47.3472 36.5166H46.3641V29.2469H47.3472V36.5166Z" fill="#202020"/>
<path d="M56.304 29.2469V36.5166H55.8125C55.7348 36.5166 55.6689 36.5031 55.6148 36.476C55.5642 36.449 55.5135 36.4033 55.4628 36.3391L51.262 30.8601C51.2687 30.9447 51.2738 31.0276 51.2772 31.1087C51.2805 31.1899 51.2822 31.266 51.2822 31.337V36.5166H50.4208V29.2469H50.9275C50.9714 29.2469 51.0086 29.2503 51.039 29.2571C51.0694 29.2604 51.0964 29.2689 51.1201 29.2824C51.1437 29.2926 51.1674 29.3095 51.191 29.3331C51.2147 29.3534 51.24 29.3805 51.267 29.4143L55.4679 34.8882C55.4611 34.8002 55.4544 34.7157 55.4476 34.6345C55.4442 34.55 55.4425 34.4705 55.4425 34.3961V29.2469H56.304Z" fill="#202020"/>
<path d="M65.2801 29.2469L62.3207 36.5166H61.439L58.4797 29.2469H59.2651C59.3529 29.2469 59.4239 29.2689 59.4779 29.3129C59.532 29.3568 59.5725 29.4126 59.5995 29.4803L61.6468 34.6091C61.6907 34.7241 61.7329 34.8493 61.7735 34.9845C61.8174 35.1198 61.8562 35.2619 61.89 35.4107C61.9238 35.2619 61.9593 35.1198 61.9964 34.9845C62.0336 34.8493 62.0741 34.7241 62.118 34.6091L64.1602 29.4803C64.1805 29.4228 64.2193 29.3703 64.2767 29.323C64.3376 29.2723 64.4102 29.2469 64.4946 29.2469H65.2801Z" fill="#202020"/>
<path d="M71.9311 35.7151L71.926 36.5166H67.4515V29.2469H71.926V30.0484H68.4346V32.4632H71.2622V33.2343H68.4346V35.7151H71.9311Z" fill="#202020"/>
<path d="M78.2314 30.3833C78.201 30.434 78.1672 30.4729 78.13 30.5C78.0963 30.5236 78.054 30.5355 78.0034 30.5355C77.9459 30.5355 77.8784 30.5067 77.8007 30.4492C77.723 30.3917 77.625 30.3292 77.5067 30.2615C77.3919 30.1905 77.2517 30.1262 77.0862 30.0687C76.924 30.0112 76.7264 29.9825 76.4933 29.9825C76.2737 29.9825 76.0794 30.0129 75.9105 30.0738C75.745 30.1313 75.6048 30.2108 75.4899 30.3122C75.3784 30.4137 75.294 30.5338 75.2366 30.6724C75.1791 30.8077 75.1504 30.9548 75.1504 31.1138C75.1504 31.3167 75.1994 31.4858 75.2974 31.6211C75.3987 31.753 75.5305 31.8663 75.6926 31.961C75.8582 32.0557 76.044 32.1386 76.25 32.2096C76.4595 32.2772 76.6723 32.3482 76.8885 32.4226C77.1081 32.4971 77.3209 32.5816 77.527 32.6763C77.7365 32.7676 77.9223 32.8843 78.0844 33.0263C78.25 33.1684 78.3817 33.3426 78.4797 33.5489C78.581 33.7552 78.6317 34.0088 78.6317 34.3098C78.6317 34.6277 78.5777 34.9271 78.4696 35.2078C78.3614 35.4851 78.2027 35.7269 77.9932 35.9332C77.7871 36.1395 77.5321 36.3019 77.228 36.4202C76.9274 36.5386 76.5845 36.5978 76.1994 36.5978C75.7264 36.5978 75.2974 36.5132 74.9122 36.3441C74.5271 36.1716 74.1977 35.94 73.9241 35.6491L74.2079 35.1824C74.2349 35.1452 74.267 35.1148 74.3042 35.0911C74.3447 35.064 74.3886 35.0505 74.4359 35.0505C74.4798 35.0505 74.5288 35.0691 74.5829 35.1063C74.6403 35.1401 74.7045 35.1841 74.7754 35.2382C74.8464 35.2923 74.9275 35.3515 75.0187 35.4158C75.1099 35.48 75.2129 35.5392 75.3278 35.5933C75.446 35.6474 75.5795 35.6931 75.7281 35.7303C75.8767 35.7641 76.044 35.781 76.2298 35.781C76.4629 35.781 76.6706 35.7489 76.8531 35.6846C77.0355 35.6204 77.1892 35.5307 77.3142 35.4158C77.4426 35.2974 77.5405 35.157 77.6081 34.9947C77.6757 34.8324 77.7094 34.6514 77.7094 34.4519C77.7094 34.232 77.6588 34.0528 77.5574 33.9141C77.4595 33.7721 77.3294 33.6537 77.1672 33.559C77.0051 33.4643 76.8193 33.3848 76.6098 33.3206C76.4004 33.2529 76.1875 33.1853 75.9713 33.1177C75.7551 33.0466 75.5423 32.9655 75.3328 32.8742C75.1234 32.7828 74.9376 32.6645 74.7754 32.519C74.6133 32.3736 74.4815 32.1927 74.3802 31.9762C74.2822 31.7564 74.2332 31.4858 74.2332 31.1645C74.2332 30.9075 74.2822 30.6589 74.3802 30.4188C74.4815 30.1787 74.6268 29.9656 74.816 29.7796C75.0085 29.5936 75.2433 29.4448 75.5203 29.3331C75.8007 29.2215 76.1217 29.1657 76.4831 29.1657C76.8885 29.1657 77.2568 29.23 77.5878 29.3585C77.9223 29.487 78.2162 29.673 78.4696 29.9166L78.2314 30.3833Z" fill="#202020"/>
<path d="M86.1463 30.0738H83.7951V36.5166H82.8171V30.0738H80.4607V29.2469H86.1463V30.0738Z" fill="#202020"/>
<path d="M95.9955 29.2469V36.5166H95.1341V31.1747C95.1341 31.1036 95.1357 31.0276 95.1391 30.9464C95.1459 30.8652 95.1526 30.7824 95.1594 30.6978L92.6662 35.2433C92.5885 35.3955 92.4703 35.4716 92.3115 35.4716H92.1696C92.0109 35.4716 91.8926 35.3955 91.8149 35.2433L89.2711 30.6775C89.2914 30.8568 89.3015 31.0225 89.3015 31.1747V36.5166H88.44V29.2469H89.1647C89.2525 29.2469 89.3201 29.2554 89.3674 29.2723C89.4147 29.2892 89.4603 29.3365 89.5042 29.4143L92.0125 33.8888C92.0531 33.9699 92.0919 34.0545 92.1291 34.1424C92.1696 34.2304 92.2068 34.32 92.2406 34.4113C92.2744 34.32 92.3098 34.2304 92.347 34.1424C92.3841 34.0511 92.4247 33.9649 92.4686 33.8837L94.9314 29.4143C94.9719 29.3365 95.0158 29.2892 95.0631 29.2723C95.1138 29.2554 95.183 29.2469 95.2709 29.2469H95.9955Z" fill="#202020"/>
<path d="M103.548 35.7151L103.543 36.5166H99.0685V29.2469H103.543V30.0484H100.052V32.4632H102.879V33.2343H100.052V35.7151H103.548Z" fill="#202020"/>
<path d="M112.017 29.2469V36.5166H111.526C111.448 36.5166 111.382 36.5031 111.328 36.476C111.277 36.449 111.227 36.4033 111.176 36.3391L106.975 30.8601C106.982 30.9447 106.987 31.0276 106.99 31.1087C106.994 31.1899 106.995 31.266 106.995 31.337V36.5166H106.134V29.2469H106.641C106.685 29.2469 106.722 29.2503 106.752 29.2571C106.783 29.2604 106.81 29.2689 106.833 29.2824C106.857 29.2926 106.881 29.3095 106.904 29.3331C106.928 29.3534 106.953 29.3805 106.98 29.4143L111.181 34.8882C111.174 34.8002 111.168 34.7157 111.161 34.6345C111.157 34.55 111.156 34.4705 111.156 34.3961V29.2469H112.017Z" fill="#202020"/>
<path d="M120 30.0738H117.649V36.5166H116.671V30.0738H114.314V29.2469H120V30.0738Z" fill="#202020"/>
</svg>
