<svg width="115" height="40" viewBox="0 0 115 40" fill="none" xmlns="http://www.w3.org/2000/svg">
<path fill-rule="evenodd" clip-rule="evenodd" d="M27.6001 36.0004V2.40039L28.8001 2.96012V36.0004H27.6001ZM31.2001 4.07957L30.0001 3.51985V36.0004H31.2001V4.07957ZM32.4001 36.0004V4.6393L33.6001 5.19903V36.0004H32.4001ZM36.0001 6.31848L34.8001 5.75875V36.0004H36.0001V6.31848Z" fill="url(#paint0_linear)"/>
<path fill-rule="evenodd" clip-rule="evenodd" d="M22.3999 0V36H26.3999V1.87502L22.3999 0Z" fill="url(#paint1_linear)"/>
<path fill-rule="evenodd" clip-rule="evenodd" d="M13.2 3.40039V36.0004H12V3.83613L13.2 3.40039ZM9.6 4.7076V36.0004H10.8V4.27186L9.6 4.7076ZM8.4 5.14334V36.0004H7.2V5.57907L8.4 5.14334ZM6 6.01481L4.8 6.45055V36.0004H6V6.01481ZM1.2 7.75776L0 8.19349V36.0004H1.2V7.75776ZM3.6 6.88628L2.4 7.32202V36.0004H3.6V6.88628Z" fill="url(#paint2_linear)"/>
<path fill-rule="evenodd" clip-rule="evenodd" d="M22.3999 0L14.3999 2.89999V36H22.3999V0Z" fill="url(#paint3_linear)"/>
<path d="M50.4637 9.56362C50.4637 10.0854 50.3811 10.5603 50.216 10.9881C50.0509 11.4159 49.8178 11.7822 49.5167 12.0868C49.2156 12.3915 48.853 12.6281 48.4289 12.7966C48.008 12.9619 47.5418 13.0446 47.0303 13.0446H44.4322V6.07779H47.0303C47.5418 6.07779 48.008 6.16206 48.4289 6.3306C48.853 6.49589 49.2156 6.7325 49.5167 7.0404C49.8178 7.34507 50.0509 7.71132 50.216 8.13915C50.3811 8.56697 50.4637 9.0418 50.4637 9.56362ZM49.4973 9.56362C49.4973 9.13579 49.439 8.75334 49.3224 8.41626C49.2059 8.07918 49.0408 7.79397 48.8271 7.5606C48.6134 7.32724 48.3544 7.14898 48.0501 7.02582C47.7458 6.90265 47.4058 6.84107 47.0303 6.84107H45.3743V12.2813H47.0303C47.4058 12.2813 47.7458 12.2197 48.0501 12.0966C48.3544 11.9734 48.6134 11.7968 48.8271 11.5666C49.0408 11.3333 49.2059 11.0481 49.3224 10.711C49.439 10.3739 49.4973 9.99145 49.4973 9.56362Z" fill="#202020"/>
<path d="M53.9285 13.0446H52.9864V6.07779H53.9285V13.0446Z" fill="#202020"/>
<path d="M62.5267 9.69489V12.3688C62.1771 12.6216 61.8032 12.8112 61.4049 12.9376C61.01 13.0608 60.5761 13.1224 60.1035 13.1224C59.5434 13.1224 59.0383 13.0365 58.5883 12.8647C58.1383 12.6897 57.753 12.4466 57.4325 12.1355C57.1153 11.8211 56.8708 11.4451 56.6992 11.0075C56.5277 10.57 56.4419 10.0887 56.4419 9.56362C56.4419 9.03208 56.5244 8.54753 56.6895 8.10997C56.8579 7.67242 57.0958 7.29807 57.4034 6.98692C57.711 6.67253 58.0849 6.42945 58.5252 6.25767C58.9655 6.08589 59.4576 6 60.0015 6C60.2767 6 60.5324 6.02107 60.7688 6.0632C61.0051 6.1021 61.2236 6.16044 61.4244 6.23822C61.6251 6.31277 61.8112 6.40514 61.9828 6.51534C62.1544 6.6223 62.3147 6.74384 62.4636 6.87997L62.1965 7.3078C62.1544 7.37262 62.0994 7.41475 62.0314 7.4342C61.9666 7.45041 61.8938 7.4342 61.8129 7.38558C61.7352 7.34021 61.6461 7.28511 61.5458 7.22029C61.4454 7.15546 61.3224 7.09388 61.1767 7.03554C61.0342 6.97396 60.8643 6.9221 60.6668 6.87997C60.4725 6.83783 60.2411 6.81676 59.9723 6.81676C59.5806 6.81676 59.2261 6.88159 58.9088 7.01123C58.5916 7.13764 58.3212 7.32076 58.0978 7.5606C57.8744 7.79721 57.7029 8.08567 57.5831 8.42599C57.4633 8.76306 57.4034 9.14227 57.4034 9.56362C57.4034 10.0012 57.4649 10.3934 57.5879 10.7402C57.7142 11.0837 57.8923 11.377 58.1221 11.6201C58.3552 11.86 58.6369 12.0431 58.9671 12.1695C59.2973 12.2959 59.668 12.3591 60.0792 12.3591C60.4029 12.3591 60.6895 12.3234 60.9387 12.2521C61.1913 12.1776 61.4373 12.0755 61.6769 11.9459V10.4144H60.594C60.5324 10.4144 60.4823 10.3966 60.4434 10.3609C60.4078 10.3253 60.39 10.2815 60.39 10.2297V9.69489H62.5267Z" fill="#202020"/>
<path d="M66.0763 13.0446H65.1342V6.07779H66.0763V13.0446Z" fill="#202020"/>
<path d="M73.7276 6.87024H71.4743V13.0446H70.537V6.87024H68.2789V6.07779H73.7276V6.87024Z" fill="#202020"/>
<path d="M79.6213 10.4582L78.5287 7.62381C78.4963 7.53954 78.4623 7.4423 78.4267 7.3321C78.3911 7.21866 78.3571 7.09874 78.3247 6.97234C78.2567 7.23487 78.1871 7.45365 78.1159 7.62867L77.0232 10.4582H79.6213ZM81.5833 13.0446H80.8548C80.7706 13.0446 80.7027 13.0235 80.6509 12.9814C80.5991 12.9393 80.5602 12.8858 80.5343 12.821L79.8836 11.1388H76.761L76.1103 12.821C76.0908 12.8793 76.0536 12.9312 75.9986 12.9765C75.9435 13.0219 75.8755 13.0446 75.7946 13.0446H75.0662L77.8488 6.07779H78.8006L81.5833 13.0446Z" fill="#202020"/>
<path d="M87.6124 12.2521V13.0446H83.6642V6.07779H84.6015V12.2521H87.6124Z" fill="#202020"/>
<path d="M50.0849 20.6337V23.3076C49.7352 23.5604 49.3613 23.75 48.9631 23.8764C48.5681 23.9996 48.1343 24.0612 47.6616 24.0612C47.1015 24.0612 46.5965 23.9753 46.1465 23.8035C45.6964 23.6285 45.3112 23.3854 44.9907 23.0743C44.6734 22.7599 44.429 22.3839 44.2574 21.9464C44.0858 21.5088 44 21.0275 44 20.5024C44 19.9709 44.0826 19.4863 44.2477 19.0488C44.416 18.6112 44.654 18.2369 44.9615 17.9257C45.2691 17.6113 45.643 17.3683 46.0833 17.1965C46.5236 17.0247 47.0157 16.9388 47.5596 16.9388C47.8348 16.9388 48.0906 16.9599 48.3269 17.002C48.5633 17.0409 48.7818 17.0992 48.9825 17.177C49.1832 17.2516 49.3694 17.344 49.541 17.4541C49.7126 17.5611 49.8728 17.6826 50.0217 17.8188L49.7547 18.2466C49.7126 18.3114 49.6575 18.3536 49.5895 18.373C49.5248 18.3892 49.4519 18.373 49.371 18.3244C49.2933 18.279 49.2043 18.2239 49.1039 18.1591C49.0036 18.0943 48.8805 18.0327 48.7348 17.9743C48.5924 17.9128 48.4224 17.8609 48.2249 17.8188C48.0307 17.7766 47.7992 17.7556 47.5305 17.7556C47.1388 17.7556 46.7842 17.8204 46.467 17.95C46.1497 18.0764 45.8794 18.2596 45.656 18.4994C45.4326 18.736 45.261 19.0245 45.1412 19.3648C45.0214 19.7019 44.9615 20.0811 44.9615 20.5024C44.9615 20.94 45.023 21.3322 45.1461 21.679C45.2723 22.0225 45.4504 22.3158 45.6803 22.5589C45.9134 22.7988 46.195 22.9819 46.5252 23.1083C46.8555 23.2347 47.2262 23.2979 47.6373 23.2979C47.9611 23.2979 48.2476 23.2623 48.4969 23.1909C48.7494 23.1164 48.9955 23.0143 49.235 22.8847V21.3532H48.1521C48.0906 21.3532 48.0404 21.3354 48.0015 21.2997C47.9659 21.2641 47.9481 21.2203 47.9481 21.1685V20.6337H50.0849Z" fill="#202020"/>
<path d="M56.6405 23.1909V23.9834H52.6924V17.0166H53.6296V23.1909H56.6405Z" fill="#202020"/>
<path d="M65.2766 20.5024C65.2766 21.0243 65.194 21.5039 65.0289 21.9415C64.8638 22.3758 64.6307 22.7502 64.3296 23.0645C64.0285 23.3789 63.6659 23.6236 63.2418 23.7987C62.8209 23.9704 62.3547 24.0563 61.8432 24.0563C61.3317 24.0563 60.8655 23.9704 60.4446 23.7987C60.0237 23.6236 59.6628 23.3789 59.3617 23.0645C59.0606 22.7502 58.8275 22.3758 58.6624 21.9415C58.4973 21.5039 58.4147 21.0243 58.4147 20.5024C58.4147 19.9806 58.4973 19.5025 58.6624 19.0682C58.8275 18.6307 59.0606 18.2547 59.3617 17.9403C59.6628 17.6227 60.0237 17.3764 60.4446 17.2013C60.8655 17.0263 61.3317 16.9388 61.8432 16.9388C62.3547 16.9388 62.8209 17.0263 63.2418 17.2013C63.6659 17.3764 64.0285 17.6227 64.3296 17.9403C64.6307 18.2547 64.8638 18.6307 65.0289 19.0682C65.194 19.5025 65.2766 19.9806 65.2766 20.5024ZM64.3102 20.5024C64.3102 20.0746 64.2519 19.6905 64.1354 19.3502C64.0188 19.0099 63.8537 18.7231 63.64 18.4897C63.4264 18.2531 63.1674 18.0716 62.863 17.9452C62.5587 17.8188 62.2188 17.7556 61.8432 17.7556C61.4709 17.7556 61.1326 17.8188 60.8283 17.9452C60.5239 18.0716 60.2633 18.2531 60.0464 18.4897C59.8327 18.7231 59.6676 19.0099 59.5511 19.3502C59.4345 19.6905 59.3762 20.0746 59.3762 20.5024C59.3762 20.9303 59.4345 21.3143 59.5511 21.6547C59.6676 21.9917 59.8327 22.2786 60.0464 22.5152C60.2633 22.7485 60.5239 22.9284 60.8283 23.0548C61.1326 23.178 61.4709 23.2396 61.8432 23.2396C62.2188 23.2396 62.5587 23.178 62.863 23.0548C63.1674 22.9284 63.4264 22.7485 63.64 22.5152C63.8537 22.2786 64.0188 21.9917 64.1354 21.6547C64.2519 21.3143 64.3102 20.9303 64.3102 20.5024Z" fill="#202020"/>
<path d="M70.2327 23.2347C70.5014 23.2347 70.7329 23.2039 70.9271 23.1423C71.1214 23.0807 71.28 22.9949 71.403 22.8847C71.5293 22.7712 71.6216 22.6383 71.6798 22.486C71.7381 22.3304 71.7673 22.1603 71.7673 21.9755C71.7673 21.6158 71.6394 21.3322 71.3836 21.1247C71.1279 20.9141 70.7442 20.8087 70.2327 20.8087H68.7273V23.2347H70.2327ZM68.7273 17.7604V20.1378H69.9705C70.2359 20.1378 70.4658 20.1086 70.66 20.0503C70.8575 19.992 71.0194 19.9109 71.1457 19.8072C71.2752 19.7035 71.3707 19.5787 71.4322 19.4329C71.4937 19.2838 71.5245 19.1217 71.5245 18.9467C71.5245 18.5351 71.4014 18.2353 71.1554 18.0473C70.9093 17.856 70.5273 17.7604 70.0093 17.7604H68.7273ZM70.0093 17.0166C70.4367 17.0166 70.8041 17.0587 71.1117 17.143C71.4225 17.2273 71.6766 17.3472 71.8741 17.5028C72.0748 17.6583 72.2221 17.8496 72.316 18.0764C72.4099 18.3001 72.4568 18.5529 72.4568 18.8349C72.4568 19.0066 72.4293 19.1719 72.3743 19.3308C72.3225 19.4863 72.2432 19.6322 72.1363 19.7683C72.0295 19.9044 71.8935 20.0276 71.7284 20.1378C71.5665 20.2448 71.3755 20.3323 71.1554 20.4003C71.6669 20.4976 72.0505 20.6807 72.3063 20.9497C72.5653 21.2155 72.6948 21.5655 72.6948 21.9998C72.6948 22.2948 72.6398 22.5638 72.5297 22.8069C72.4229 23.05 72.2642 23.259 72.0538 23.434C71.8466 23.6091 71.5908 23.7452 71.2865 23.8424C70.9822 23.9364 70.6358 23.9834 70.2473 23.9834H67.79V17.0166H70.0093Z" fill="#202020"/>
<path d="M78.9301 21.397L77.8374 18.5626C77.805 18.4783 77.7711 18.3811 77.7354 18.2709C77.6998 18.1575 77.6658 18.0376 77.6335 17.9111C77.5655 18.1737 77.4959 18.3925 77.4246 18.5675L76.332 21.397H78.9301ZM80.892 23.9834H80.1636C80.0794 23.9834 80.0114 23.9623 79.9596 23.9202C79.9078 23.8781 79.8689 23.8246 79.8431 23.7598L79.1923 22.0776H76.0697L75.419 23.7598C75.3996 23.8181 75.3624 23.87 75.3073 23.9153C75.2523 23.9607 75.1843 23.9834 75.1034 23.9834H74.3749L77.1575 17.0166H78.1094L80.892 23.9834Z" fill="#202020"/>
<path d="M86.9211 23.1909V23.9834H82.973V17.0166H83.9102V23.1909H86.9211Z" fill="#202020"/>
<path d="M45.3743 34.9222H44.4322V27.9554H45.3743V34.9222Z" fill="#202020"/>
<path d="M53.958 27.9554V34.9222H53.4869C53.4124 34.9222 53.3493 34.9092 53.2975 34.8833C53.249 34.8574 53.2004 34.8136 53.1518 34.7521L49.126 29.5014C49.1325 29.5825 49.1373 29.6619 49.1406 29.7396C49.1438 29.8174 49.1454 29.8904 49.1454 29.9584V34.9222H48.3199V27.9554H48.8055C48.8476 27.9554 48.8832 27.9586 48.9123 27.9651C48.9415 27.9684 48.9674 27.9765 48.99 27.9894C49.0127 27.9992 49.0353 28.0154 49.058 28.0381C49.0807 28.0575 49.105 28.0834 49.1309 28.1158L53.1567 33.3616C53.1502 33.2773 53.1437 33.1963 53.1373 33.1185C53.134 33.0375 53.1324 32.9613 53.1324 32.89V27.9554H53.958Z" fill="#202020"/>
<path d="M62.56 27.9554L59.724 34.9222H58.879L56.043 27.9554H56.7957C56.8799 27.9554 56.9478 27.9765 56.9996 28.0186C57.0514 28.0607 57.0903 28.1142 57.1162 28.179L59.0781 33.0942C59.1202 33.2044 59.1607 33.3243 59.1995 33.454C59.2416 33.5836 59.2788 33.7198 59.3112 33.8624C59.3436 33.7198 59.3776 33.5836 59.4132 33.454C59.4488 33.3243 59.4877 33.2044 59.5297 33.0942L61.4868 28.179C61.5062 28.1239 61.5435 28.0737 61.5985 28.0283C61.6568 27.9797 61.7264 27.9554 61.8073 27.9554H62.56Z" fill="#202020"/>
<path d="M68.9339 34.1541L68.9291 34.9222H64.641V27.9554H68.9291V28.7236H65.5831V31.0377H68.2929V31.7767H65.5831V34.1541H68.9339Z" fill="#202020"/>
<path d="M74.9717 29.0444C74.9426 29.093 74.9102 29.1303 74.8746 29.1562C74.8422 29.1789 74.8017 29.1903 74.7532 29.1903C74.6981 29.1903 74.6334 29.1627 74.5589 29.1076C74.4845 29.0525 74.3906 28.9926 74.2773 28.9277C74.1672 28.8597 74.0328 28.7981 73.8742 28.743C73.7188 28.6879 73.5294 28.6604 73.306 28.6604C73.0956 28.6604 72.9094 28.6895 72.7475 28.7479C72.5889 28.803 72.4545 28.8791 72.3445 28.9764C72.2376 29.0736 72.1567 29.1887 72.1017 29.3215C72.0466 29.4512 72.0191 29.5922 72.0191 29.7445C72.0191 29.939 72.066 30.101 72.1599 30.2307C72.2571 30.3571 72.3833 30.4657 72.5387 30.5564C72.6974 30.6472 72.8754 30.7266 73.0729 30.7946C73.2736 30.8595 73.4776 30.9275 73.6848 30.9988C73.8952 31.0701 74.0992 31.1512 74.2967 31.2419C74.4974 31.3294 74.6755 31.4412 74.8309 31.5774C74.9895 31.7135 75.1158 31.8804 75.2097 32.0781C75.3068 32.2758 75.3553 32.5189 75.3553 32.8074C75.3553 33.112 75.3035 33.3989 75.1999 33.6679C75.0963 33.9337 74.9442 34.1654 74.7435 34.3631C74.546 34.5608 74.3015 34.7164 74.0102 34.8298C73.722 34.9433 73.3934 35 73.0243 35C72.5711 35 72.1599 34.919 71.7909 34.7569C71.4218 34.5916 71.1061 34.3696 70.8439 34.0909L71.1158 33.6436C71.1417 33.6079 71.1725 33.5788 71.2081 33.5561C71.247 33.5301 71.289 33.5172 71.3344 33.5172C71.3765 33.5172 71.4234 33.535 71.4752 33.5707C71.5302 33.6031 71.5918 33.6452 71.6597 33.6971C71.7277 33.7489 71.8054 33.8056 71.8928 33.8672C71.9803 33.9288 72.079 33.9855 72.1891 34.0374C72.3024 34.0892 72.4303 34.133 72.5727 34.1686C72.7152 34.2011 72.8754 34.2173 73.0535 34.2173C73.2769 34.2173 73.476 34.1865 73.6508 34.1249C73.8256 34.0633 73.9729 33.9774 74.0927 33.8672C74.2157 33.7538 74.3096 33.6193 74.3744 33.4637C74.4391 33.3081 74.4715 33.1347 74.4715 32.9435C74.4715 32.7328 74.423 32.5611 74.3258 32.4282C74.2319 32.292 74.1073 32.1786 73.9519 32.0878C73.7965 31.9971 73.6184 31.9209 73.4177 31.8593C73.217 31.7945 73.013 31.7297 72.8058 31.6649C72.5986 31.5968 72.3947 31.519 72.1939 31.4315C71.9932 31.344 71.8151 31.2306 71.6597 31.0912C71.5043 30.9518 71.3781 30.7784 71.281 30.571C71.1871 30.3603 71.1401 30.101 71.1401 29.7931C71.1401 29.5468 71.1871 29.3086 71.281 29.0785C71.3781 28.8483 71.5173 28.6441 71.6986 28.4659C71.8831 28.2876 72.1081 28.145 72.3736 28.0381C72.6423 27.9311 72.9499 27.8776 73.2963 27.8776C73.6848 27.8776 74.0377 27.9392 74.355 28.0624C74.6755 28.1855 74.9571 28.3638 75.1999 28.5971L74.9717 29.0444Z" fill="#202020"/>
<path d="M82.5569 28.7479H80.3036V34.9222H79.3663V28.7479H77.1082V27.9554H82.5569V28.7479Z" fill="#202020"/>
<path d="M91.9957 27.9554V34.9222H91.1701V29.8028C91.1701 29.7348 91.1717 29.6619 91.1749 29.5841C91.1814 29.5063 91.1879 29.4269 91.1944 29.3458L88.8051 33.7019C88.7306 33.8478 88.6173 33.9207 88.4652 33.9207H88.3292C88.177 33.9207 88.0637 33.8478 87.9893 33.7019L85.5514 29.3264C85.5708 29.4982 85.5806 29.657 85.5806 29.8028V34.9222H84.755V27.9554H85.4494C85.5336 27.9554 85.5984 27.9635 85.6437 27.9797C85.689 27.9959 85.7327 28.0413 85.7748 28.1158L88.1786 32.4039C88.2175 32.4816 88.2547 32.5627 88.2903 32.6469C88.3292 32.7312 88.3648 32.8171 88.3972 32.9046C88.4296 32.8171 88.4635 32.7312 88.4992 32.6469C88.5348 32.5594 88.5736 32.4768 88.6157 32.399L90.9758 28.1158C91.0147 28.0413 91.0568 27.9959 91.1021 27.9797C91.1507 27.9635 91.217 27.9554 91.3012 27.9554H91.9957Z" fill="#202020"/>
<path d="M99.2335 34.1541L99.2287 34.9222H94.9406V27.9554H99.2287V28.7236H95.8827V31.0377H98.5925V31.7767H95.8827V34.1541H99.2335Z" fill="#202020"/>
<path d="M107.35 27.9554V34.9222H106.879C106.804 34.9222 106.741 34.9092 106.689 34.8833C106.641 34.8574 106.592 34.8136 106.544 34.7521L102.518 29.5014C102.524 29.5825 102.529 29.6619 102.532 29.7396C102.536 29.8174 102.537 29.8904 102.537 29.9584V34.9222H101.712V27.9554H102.197C102.239 27.9554 102.275 27.9586 102.304 27.9651C102.333 27.9684 102.359 27.9765 102.382 27.9894C102.404 27.9992 102.427 28.0154 102.45 28.0381C102.472 28.0575 102.497 28.0834 102.523 28.1158L106.548 33.3616C106.542 33.2773 106.536 33.1963 106.529 33.1185C106.526 33.0375 106.524 32.9613 106.524 32.89V27.9554H107.35Z" fill="#202020"/>
<path d="M115 28.7479H112.747V34.9222H111.809V28.7479H109.551V27.9554H115V28.7479Z" fill="#202020"/>
<defs>
<linearGradient id="paint0_linear" x1="31.8001" y1="-7.41624" x2="31.8001" y2="39.9473" gradientUnits="userSpaceOnUse">
<stop stop-color="#E5E5E5"/>
<stop offset="1" stop-color="#333333"/>
</linearGradient>
<linearGradient id="paint1_linear" x1="22.3999" y1="18" x2="22.3999" y2="36" gradientUnits="userSpaceOnUse">
<stop stop-color="#102693"/>
<stop offset="1" stop-color="#001951"/>
</linearGradient>
<linearGradient id="paint2_linear" x1="6.6" y1="-6.12407" x2="6.6" y2="39.8299" gradientUnits="userSpaceOnUse">
<stop stop-color="#E5E5E5"/>
<stop offset="1" stop-color="#333333"/>
</linearGradient>
<linearGradient id="paint3_linear" x1="14.4054" y1="18" x2="14.4054" y2="34.985" gradientUnits="userSpaceOnUse">
<stop stop-color="#006FFF"/>
<stop offset="1" stop-color="#003FB7"/>
</linearGradient>
</defs>
</svg>
